<svg xmlns="http://www.w3.org/2000/svg" width="256" height="256" viewBox="0 0 100 100"><rect width="100" height="100" rx="20" fill="#16161d"></rect><path fill="#fefefe" d="M16.30 78.75L16.30 20.60L32.47 50.27L48.68 20.60L48.68 78.75L42.14 78.75L42.14 52.45L42.32 45.38L38.59 52.52L32.51 63.59L32.51 63.66L32.47 63.63L32.47 63.59L26.36 52.49L22.63 45.38L22.84 52.38L22.84 78.75L16.30 78.75ZM76.88 71.68L76.88 52.45L83.42 52.45L83.42 79.38Q78.18 79.59 73.52 77.78Q68.86 75.97 65.38 72.23Q61.90 68.48 59.86 62.82Q57.82 57.16 57.82 49.71L57.82 49.71Q57.82 43.10 59.40 37.97Q60.99 32.83 63.64 29.30Q66.29 25.77 69.78 23.94Q73.26 22.11 77.05 22.11L77.05 22.11Q78.71 22.11 80.30 22.46Q81.90 22.81 83.70 23.55L83.70 23.55L80.74 29.21Q80.04 28.93 79.00 28.77Q77.97 28.61 77.19 28.61L77.19 28.61Q74.87 28.61 72.62 29.99Q70.37 31.36 68.60 34.03Q66.82 36.70 65.71 40.66Q64.61 44.61 64.61 49.78L64.61 49.78Q64.61 54.38 65.52 58.09Q66.44 61.80 68.05 64.56Q69.67 67.32 71.92 69.11Q74.17 70.91 76.88 71.68L76.88 71.68Z"></path></svg>